<svg xmlns="http://www.w3.org/2000/svg" width="229" height="63" viewBox="0 0 229 63">
  <defs>
    <style>
      .cls-1 {
        fill: #fff;
        stroke: #d4d4d5;
        stroke-width: 2px;
        fill-rule: evenodd;
      }
    </style>
  </defs>
  <path id="back" class="cls-1" d="M1350,56h217a5,5,0,0,1,5,5v41a5,5,0,0,1-5,5H1350a5,5,0,0,1-5-5V61A5,5,0,0,1,1350,56Zm93.82,49h29.32c1.36,0,2.38.582,1.58,1.157-0.64.461-13.53,9.676-14.63,10.462a3.481,3.481,0,0,1-3.18,0c-0.8-.566-13.76-9.816-14.66-10.485C1441.59,105.643,1442.32,105,1443.82,105Z" transform="translate(-1344 -55)"/>
</svg>
