<svg width="41" height="40" viewBox="0 0 41 40" fill="none" xmlns="http://www.w3.org/2000/svg">
<path d="M33.2656 6.60156H13.5781V8.00781H33.2656V6.60156Z" fill="white"/>
<path d="M33.2656 16.7969H13.5781V18.2031H33.2656V16.7969Z" fill="white"/>
<path d="M33.2656 26.9922H13.5781V28.3984H33.2656V26.9922Z" fill="white"/>
<path d="M7.95312 5.19531C8.72656 5.19531 9.35938 5.82812 9.35938 6.60156V8.00781C9.35938 8.78125 8.72656 9.41406 7.95312 9.41406H6.54688C5.77344 9.41406 5.14062 8.78125 5.14062 8.00781V6.60156C5.14062 5.82812 5.77344 5.19531 6.54688 5.19531H7.95312ZM7.95312 3.78906H6.54688C5 3.78906 3.73438 5.05469 3.73438 6.60156V8.00781C3.73438 9.55469 5 10.8203 6.54688 10.8203H7.95312C9.5 10.8203 10.7656 9.55469 10.7656 8.00781V6.60156C10.7656 5.05469 9.5 3.78906 7.95312 3.78906Z" fill="white"/>
<path d="M7.95312 15.3906C8.72656 15.3906 9.35938 16.0234 9.35938 16.7969V18.2031C9.35938 18.9766 8.72656 19.6094 7.95312 19.6094H6.54688C5.77344 19.6094 5.14062 18.9766 5.14062 18.2031V16.7969C5.14062 16.0234 5.77344 15.3906 6.54688 15.3906H7.95312ZM7.95312 13.9844H6.54688C5 13.9844 3.73438 15.25 3.73438 16.7969V18.2031C3.73438 19.75 5 21.0156 6.54688 21.0156H7.95312C9.5 21.0156 10.7656 19.75 10.7656 18.2031V16.7969C10.7656 15.25 9.5 13.9844 7.95312 13.9844Z" fill="white"/>
<path d="M7.95312 25.5859C8.72656 25.5859 9.35938 26.2188 9.35938 26.9922V28.3984C9.35938 29.1719 8.72656 29.8047 7.95312 29.8047H6.54688C5.77344 29.8047 5.14062 29.1719 5.14062 28.3984V26.9922C5.14062 26.2188 5.77344 25.5859 6.54688 25.5859H7.95312ZM7.95312 24.1797H6.54688C5 24.1797 3.73438 25.4453 3.73438 26.9922V28.3984C3.73438 29.9453 5 31.2109 6.54688 31.2109H7.95312C9.5 31.2109 10.7656 29.9453 10.7656 28.3984V26.9922C10.7656 25.4453 9.5 24.1797 7.95312 24.1797Z" fill="white"/>
</svg>
